<?xml version="1.0" encoding="UTF-8"?>
<svg id="logo-colori" xmlns="http://www.w3.org/2000/svg" viewBox="0 0 841.89 595.28">
  <defs>
    <style>
      .cls-1 {
        fill: #3b2215;
      }

      .cls-2 {
        fill: #e07e4e;
      }
    </style>
  </defs>
  <g>
    <path class="cls-2" d="M281.58,307.37c-2.14-1-4.69-1.5-7.67-1.5h-19.52v34.12h10.6v-9.92h8.92c2.97,0,5.53-.5,7.67-1.5s3.77-2.41,4.89-4.23c1.12-1.82,1.68-3.94,1.68-6.37s-.56-4.59-1.68-6.39c-1.12-1.8-2.75-3.21-4.89-4.21ZM276.35,320.7c-.74.67-1.78,1-3.12,1h-8.24v-7.46h8.24c1.33,0,2.37.32,3.12.96.74.64,1.11,1.56,1.11,2.78s-.37,2.06-1.11,2.73Z"/>
    <rect class="cls-2" x="291.93" y="305.86" width="10.6" height="34.12"/>
    <path class="cls-2" d="M320.64,305.86l-15.24,34.12h11.28l2.58-6.14h16.77l2.57,6.14h11.33l-15.29-34.12h-14.01ZM322.83,325.38l4.84-11.51,4.82,11.51h-9.67Z"/>
    <path class="cls-2" d="M381.18,307.98c-3.08-1.41-6.67-2.12-10.76-2.12h-17.56v34.12h17.56c4.1,0,7.68-.71,10.76-2.12,3.08-1.41,5.48-3.4,7.19-5.96,1.71-2.56,2.57-5.56,2.57-8.99s-.86-6.46-2.57-9.01c-1.71-2.55-4.11-4.53-7.19-5.94ZM379.15,326.98c-.73,1.15-1.77,2.04-3.12,2.66-1.35.62-2.95.93-4.8.93h-7.87v-15.29h7.87c1.85,0,3.45.31,4.8.93,1.35.62,2.39,1.5,3.12,2.64.73,1.14,1.09,2.5,1.09,4.07s-.36,2.9-1.09,4.05Z"/>
    <rect class="cls-2" x="395.44" y="305.86" width="10.6" height="34.12"/>
    <polygon class="cls-2" points="440.49 327.92 425.61 305.86 411.91 305.86 411.91 339.99 422.15 339.99 422.15 317.24 437.48 339.99 450.77 339.99 450.77 305.86 440.49 305.86 440.49 327.92"/>
    <polygon class="cls-2" points="467.73 326.66 486.44 326.66 486.44 319.2 467.73 319.2 466.94 314.33 487.81 314.33 487.81 305.86 455.68 305.86 458.23 322.93 455.68 339.99 488.04 339.99 488.04 331.53 466.94 331.53 467.73 326.66"/>
    <path class="cls-2" d="M520.98,326.77c2-.92,3.56-2.23,4.69-3.91s1.68-3.62,1.68-5.8-.56-4.2-1.68-5.87c-1.12-1.67-2.68-2.97-4.69-3.91-2-.94-4.32-1.41-6.96-1.41h-20.84v34.12h10.6v-11.83h4.22l8.43,11.83h12.15l-9.25-12.59c.57-.18,1.13-.39,1.65-.63ZM503.78,313.51h8.65c1.33,0,2.37.3,3.12.91.74.61,1.12,1.49,1.12,2.64s-.37,2.03-1.12,2.64c-.74.61-1.78.91-3.12.91h-8.65v-7.1Z"/>
    <rect class="cls-2" x="532.44" y="305.86" width="10.6" height="34.12"/>
    <path class="cls-2" d="M579.12,339.99h11.33l-15.29-34.12h-14.01l-15.24,34.12h11.28l2.58-6.14h16.77l2.57,6.14ZM563.34,325.38l4.84-11.51,4.82,11.51h-9.67Z"/>
  </g>
  <g>
    <path class="cls-1" d="M183.23,259.35h14.66c-.2.23-.4.46-.62.68-1.63,1.63-3.75,2.83-6.36,3.6-2.61.77-5.6,1.16-8.96,1.16s-6.47-.53-9-1.6c-2.53-1.07-4.48-2.72-5.84-4.96-1.36-2.24-2.04-5.07-2.04-8.48s.6-6.11,1.8-8.24c1.2-2.13,2.92-3.72,5.16-4.76s4.91-1.56,8-1.56c2.51,0,4.77.28,6.8.84,2.03.56,3.75,1.36,5.16,2.4,1.41,1.04,2.36,2.31,2.84,3.8h20.72c-.96-4.69-2.95-8.83-5.96-12.4-3.01-3.57-6.99-6.39-11.92-8.44-4.93-2.05-10.87-3.08-17.8-3.08-4.96,0-9.57.67-13.84,2-4.27,1.33-8.03,3.32-11.28,5.96-3.25,2.64-5.79,5.92-7.6,9.84-1.81,3.92-2.72,8.47-2.72,13.64s.91,9.72,2.72,13.64c1.81,3.92,4.31,7.2,7.48,9.84,3.17,2.64,6.83,4.63,10.96,5.96,4.13,1.33,8.52,2,13.16,2,5.12,0,9.55-.75,13.28-2.24,3.52-1.41,6.46-3.31,8.82-5.7l.86,6.5h14.32v-32.08h-32.8v11.68Z"/>
    <polygon class="cls-1" points="223.71 232.79 223.71 279.75 244.03 279.75 244.03 232.79 233.87 234.87 223.71 232.79"/>
    <path class="cls-1" d="M292.27,233.75l-1.11,7.86c-1.89-2.61-4.17-4.72-6.85-6.3-3.39-2-7.27-3-11.64-3s-8.41,1.01-11.8,3.04c-3.39,2.03-6.03,4.88-7.92,8.56-1.89,3.68-2.84,7.97-2.84,12.88s.95,9.12,2.84,12.8c1.89,3.68,4.53,6.53,7.92,8.56,3.39,2.03,7.32,3.04,11.8,3.04s8.25-1.01,11.64-3.04c2.68-1.6,4.95-3.72,6.83-6.34l1.13,7.94h21.12l-3.2-23.04,3.2-22.96h-21.12ZM288.71,261.47c-1.25,1.36-2.71,2.44-4.36,3.24-1.65.8-3.36,1.2-5.12,1.2s-3.21-.4-4.52-1.2c-1.31-.8-2.32-1.88-3.04-3.24-.72-1.36-1.08-2.92-1.08-4.68s.36-3.33,1.08-4.72c.72-1.39,1.73-2.48,3.04-3.28,1.31-.8,2.81-1.2,4.52-1.2s3.47.4,5.12,1.2c1.65.8,3.11,1.89,4.36,3.28,1.25,1.39,2.12,2.96,2.6,4.72-.48,1.76-1.35,3.32-2.6,4.68Z"/>
    <path class="cls-1" d="M368.58,234.99c-3.15-1.79-6.96-2.68-11.44-2.68-3.52,0-6.8.83-9.84,2.48-3.04,1.65-5.63,4.15-7.76,7.48-.04.05-.07.11-.1.17l-1.42-8.69h-20.32l3.2,16.48v29.52h20.32v-21.92c0-1.92.35-3.56,1.04-4.92.69-1.36,1.69-2.4,3-3.12,1.31-.72,2.87-1.08,4.68-1.08,2.56,0,4.55.69,5.96,2.08,1.41,1.39,2.12,3.36,2.12,5.92v23.04h20.32v-25.92c0-4.32-.84-8.09-2.52-11.32-1.68-3.23-4.09-5.73-7.24-7.52Z"/>
    <path class="cls-1" d="M422.43,259.35h14.66c-.2.23-.4.46-.62.68-1.63,1.63-3.75,2.83-6.36,3.6-2.61.77-5.6,1.16-8.96,1.16s-6.47-.53-9-1.6c-2.53-1.07-4.48-2.72-5.84-4.96-1.36-2.24-2.04-5.07-2.04-8.48s.6-6.11,1.8-8.24c1.2-2.13,2.92-3.72,5.16-4.76s4.91-1.56,8-1.56c2.51,0,4.77.28,6.8.84,2.03.56,3.75,1.36,5.16,2.4,1.41,1.04,2.36,2.31,2.84,3.8h20.72c-.96-4.69-2.95-8.83-5.96-12.4-3.01-3.57-6.99-6.39-11.92-8.44-4.93-2.05-10.87-3.08-17.8-3.08-4.96,0-9.57.67-13.84,2-4.27,1.33-8.03,3.32-11.28,5.96-3.25,2.64-5.79,5.92-7.6,9.84-1.81,3.92-2.72,8.47-2.72,13.64s.91,9.72,2.72,13.64c1.81,3.92,4.31,7.2,7.48,9.84,3.17,2.64,6.83,4.63,10.96,5.96,4.13,1.33,8.52,2,13.16,2,5.12,0,9.55-.75,13.28-2.24,3.52-1.41,6.46-3.31,8.82-5.7l.86,6.5h14.32v-32.08h-32.8v11.68Z"/>
    <path class="cls-1" d="M518.26,233.75h-20.32v21.92c0,1.97-.31,3.64-.92,5-.61,1.36-1.52,2.37-2.72,3.04-1.2.67-2.73,1-4.6,1-2.4,0-4.25-.69-5.56-2.08-1.31-1.39-1.96-3.33-1.96-5.84v-23.04h-20.32v25.92c0,4.27.81,8.01,2.44,11.24,1.63,3.23,3.99,5.73,7.08,7.52,3.09,1.79,6.8,2.68,11.12,2.68,3.47,0,6.68-.83,9.64-2.48,2.96-1.65,5.49-4.14,7.6-7.47l1.4,8.59h20.32l-3.2-16.48v-29.52Z"/>
    <path class="cls-1" d="M574.78,252.35c-3.33-1.15-7.88-1.88-13.64-2.2l-10.08-.64c-2.03-.11-3.39-.33-4.08-.68-.69-.35-1.04-.95-1.04-1.8,0-.91.56-1.64,1.68-2.2,1.12-.56,2.91-.84,5.36-.84,1.81,0,3.36.19,4.64.56,1.28.37,2.32.91,3.12,1.6.8.69,1.33,1.52,1.6,2.48h20.64c-.43-3.25-1.92-6.11-4.48-8.56-2.56-2.45-5.95-4.36-10.16-5.72-4.21-1.36-9.04-2.04-14.48-2.04s-10.4.59-14.56,1.76c-4.16,1.17-7.4,2.96-9.72,5.36-2.32,2.4-3.48,5.44-3.48,9.12,0,2.77.75,5.15,2.24,7.12,1.49,1.97,3.96,3.53,7.4,4.68,3.44,1.15,8.07,1.91,13.88,2.28l7.52.48c2.51.16,4.32.43,5.44.8,1.12.37,1.68,1.01,1.68,1.92s-.67,1.61-2,2.12c-1.33.51-3.28.76-5.84.76-2.13,0-3.93-.17-5.4-.52-1.47-.35-2.65-.85-3.56-1.52-.91-.67-1.55-1.51-1.92-2.52h-20.64c.16,3.41,1.53,6.4,4.12,8.96,2.59,2.56,6.13,4.55,10.64,5.96,4.51,1.41,9.72,2.12,15.64,2.12s10.79-.63,15.08-1.88c4.29-1.25,7.64-3.15,10.04-5.68,2.4-2.53,3.6-5.72,3.6-9.56,0-2.83-.71-5.2-2.12-7.12-1.41-1.92-3.79-3.45-7.12-4.6Z"/>
    <path class="cls-1" d="M623.62,265.99c-3.47,0-5.76-.6-6.88-1.8-1.12-1.2-1.68-3.27-1.68-6.2v-9.44h18v-14.8h-18v-12.56h-11.44l-8.88,14.08-9.04,4.56v8.72h9.04v12.08c0,4.27.88,7.95,2.64,11.04,1.76,3.09,4.43,5.45,8,7.08,3.57,1.63,8.08,2.44,13.52,2.44,2.88,0,5.64-.2,8.28-.6,2.64-.4,4.87-.87,6.68-1.4v-14.72c-1.33.43-2.84.79-4.52,1.08-1.68.29-3.59.44-5.72.44Z"/>
    <path class="cls-1" d="M693.66,243.91c-2.53-3.68-6.08-6.53-10.64-8.56-4.56-2.03-9.88-3.04-15.96-3.04s-11.4,1.01-15.96,3.04c-4.56,2.03-8.11,4.88-10.64,8.56-2.53,3.68-3.8,7.97-3.8,12.88s1.27,9.12,3.8,12.8c2.53,3.68,6.08,6.53,10.64,8.56,4.56,2.03,9.88,3.04,15.96,3.04s11.4-1.01,15.96-3.04c4.56-2.03,8.11-4.88,10.64-8.56,2.53-3.68,3.8-7.95,3.8-12.8s-1.27-9.2-3.8-12.88ZM675.82,261.99c-.77,1.44-1.89,2.53-3.36,3.28-1.47.75-3.27,1.12-5.4,1.12s-3.87-.37-5.36-1.12c-1.49-.75-2.63-1.84-3.4-3.28-.77-1.44-1.16-3.2-1.16-5.28s.39-3.76,1.16-5.2c.77-1.44,1.91-2.53,3.4-3.28,1.49-.75,3.28-1.12,5.36-1.12s3.93.37,5.4,1.12c1.47.75,2.59,1.84,3.36,3.28.77,1.44,1.16,3.2,1.16,5.28s-.39,3.76-1.16,5.2Z"/>
  </g>
  <path class="cls-2" d="M224.75,227.13c.16,0,.31,0,.47,0,18.03,0,19.54-19.24,19.56-19.44.04-.57-.39-1.07-.97-1.12-5.35-.41-9.79.92-13.21,3.95-6.37,5.64-6.85,15.1-6.87,15.5-.01.28.09.56.28.76.19.21.46.32.75.33"/>
</svg>